<?xml version="1.0" encoding="UTF-8"?>
<svg version="1.1" xmlns="http://www.w3.org/2000/svg" width="1280" height="698">
<path d="M0,0 L5,1 L8,4 L9,13 L17,30 L27,49 L35,65 L50,94 L60,113 L70,132 L78,148 L92,175 L103,196 L112,213 L120,229 L128,245 L138,263 L146,279 L156,298 L167,318 L174,332 L184,351 L192,366 L200,383 L205,392 L220,420 L230,439 L231,444 L230,445 L163,445 L160,442 L152,427 L144,411 L132,389 L124,373 L116,358 L108,342 L106,340 L-78,340 L-79,336 L-74,326 L-67,310 L-58,293 L-53,280 L-48,278 L73,277 L61,252 L53,237 L45,220 L35,201 L25,181 L15,162 L7,146 L2,135 L0,136 L-8,154 L-18,173 L-28,194 L-37,211 L-47,232 L-55,248 L-63,264 L-71,280 L-78,294 L-86,310 L-96,331 L-104,347 L-113,366 L-125,388 L-135,402 L-146,414 L-153,421 L-166,430 L-185,440 L-205,446 L-221,448 L-237,448 L-253,446 L-274,439 L-290,431 L-301,423 L-311,415 L-311,413 L-314,412 L-314,410 L-317,409 L-330,392 L-338,376 L-344,361 L-348,343 L-349,322 L-348,321 L-290,321 L-288,325 L-286,342 L-282,352 L-277,362 L-267,373 L-253,382 L-240,386 L-236,387 L-223,387 L-210,384 L-196,377 L-194,377 L-194,375 L-186,368 L-181,364 L-172,348 L-161,325 L-146,295 L-139,281 L-132,266 L-124,249 L-114,230 L-97,195 L-93,188 L-86,174 L-78,158 L-70,141 L-62,125 L-34,69 L-23,46 L-15,31 L-7,13 Z " fill="#C4A291" transform="translate(696,123)"/>
<path d="M0,0 L3,1 L1,1 L1,135 L-6,149 L-14,165 L-22,182 L-32,201 L-42,222 L-50,238 L-61,261 L-71,280 L-78,294 L-86,310 L-96,331 L-104,347 L-113,366 L-125,388 L-135,402 L-146,414 L-153,421 L-166,430 L-185,440 L-205,446 L-221,448 L-237,448 L-253,446 L-274,439 L-290,431 L-301,423 L-311,415 L-311,413 L-314,412 L-314,410 L-317,409 L-330,392 L-338,376 L-344,361 L-348,343 L-349,322 L-348,321 L-290,321 L-288,325 L-286,342 L-282,352 L-277,362 L-267,373 L-253,382 L-240,386 L-236,387 L-223,387 L-210,384 L-196,377 L-194,377 L-194,375 L-186,368 L-181,364 L-172,348 L-161,325 L-146,295 L-139,281 L-132,266 L-124,249 L-114,230 L-97,195 L-93,188 L-86,174 L-78,158 L-70,141 L-62,125 L-34,69 L-23,46 L-15,31 L-7,13 Z " fill="#2C1C26" transform="translate(696,123)"/>
<path d="M0,0 L111,0 L113,1 L113,147 L103,168 L95,184 L87,201 L79,217 L70,236 L62,251 L55,265 L52,264 L52,61 L-2,61 L-2,1 Z " fill="#1D1119" transform="translate(487,131)"/>
<path d="M0,0 L8,6 L17,15 L25,22 L29,25 L28,29 L15,38 L-1,49 L-9,55 L-11,55 L-11,57 L5,46 L15,39 L29,29 L32,27 L176,27 L180,33 L186,44 L205,81 L214,98 L219,108 L227,124 L233,135 L260,150 L276,158 L283,161 L282,163 L215,163 L212,160 L204,145 L196,129 L184,107 L176,91 L168,76 L160,60 L158,58 L-26,58 L-27,54 L-22,44 L-15,28 L-6,11 L-2,1 Z " fill="#976A60" transform="translate(644,405)"/>
<path d="M0,0 L36,0 L38,1 L38,147 L28,168 L20,184 L12,201 L10,201 L9,203 L6,202 L6,168 L7,31 L-76,31 L-76,3 L-75,2 L0,1 Z " fill="#301F2A" transform="translate(562,131)"/>
<path d="M0,0 L4,5 L19,34 L29,53 L44,81 L54,100 L63,117 L71,133 L81,152 L93,175 L107,201 L114,213 L118,222 L120,225 L119,228 L108,222 L92,212 L76,202 L74,201 L74,199 L72,199 L60,174 L52,159 L44,142 L34,123 L24,103 L14,84 L6,68 L0,56 Z " fill="#A07468" transform="translate(697,201)"/>
<path d="M0,0 L1,3 L-6,17 L-14,33 L-24,54 L-32,70 L-41,89 L-53,111 L-63,125 L-74,137 L-81,144 L-94,153 L-113,163 L-133,169 L-149,171 L-165,171 L-181,169 L-202,162 L-218,154 L-229,146 L-239,138 L-239,136 L-242,135 L-242,133 L-245,132 L-258,115 L-266,99 L-272,84 L-276,66 L-277,45 L-276,44 L-218,44 L-216,48 L-217,58 L-218,58 L-219,46 L-239,47 L-246,48 L-246,60 L-243,74 L-237,90 L-231,101 L-223,111 L-214,120 L-201,129 L-188,135 L-172,140 L-141,140 L-139,141 L-140,145 L-152,155 L-167,162 L-181,165 L-175,166 L-175,168 L-164,168 L-148,169 L-148,166 L-130,165 L-120,163 L-119,160 L-111,159 L-96,151 L-82,141 L-81,139 L-79,139 L-79,137 L-76,137 L-75,134 L-73,134 L-71,130 L-67,126 L-66,123 L-61,118 L-59,114 L-57,114 L-55,109 L-49,99 L-41,83 L-37,71 L-34,68 L-28,56 L-25,49 L-20,40 L-19,36 L-17,36 L-16,30 L-15,27 L-13,27 L-10,17 L-8,17 L-6,11 Z " fill="#1E121B" transform="translate(624,400)"/>
<path d="M0,0 L110,0 L108,4 L101,11 L99,11 L98,14 L90,21 L83,28 L0,28 Z " fill="#4A3541" transform="translate(487,133)"/>
<path d="M0,0 L81,0 L81,2 L79,2 L77,6 L65,18 L63,21 L61,21 L61,23 L59,23 L58,26 L56,26 L55,29 L1,29 L0,28 Z " fill="#251721" transform="translate(486,162)"/>
<path d="M0,0 L2,0 L3,21 L9,49 L13,58 L29,65 L34,66 L32,71 L27,72 L15,63 L11,61 L6,62 L-16,74 L-31,83 L-36,87 L-38,87 L-38,89 L-43,94 L-46,96 L-44,87 L-36,71 L-27,52 L-17,33 L-4,5 Z " fill="#49333F" transform="translate(604,310)"/>
<path d="M0,0 L8,6 L17,15 L25,22 L29,25 L28,29 L15,38 L-1,49 L-9,55 L-11,55 L-11,58 L-26,58 L-27,54 L-22,44 L-15,28 L-6,11 L-2,1 Z " fill="#36242D" transform="translate(644,405)"/>
<path d="M0,0 L2,0 L3,21 L9,49 L13,58 L29,65 L34,66 L32,71 L27,72 L15,63 L11,61 L6,62 L-16,74 L-31,83 L-36,87 L-38,87 L-38,89 L-43,94 L-46,96 L-44,87 L-39,85 L-26,76 L-8,66 L7,58 L7,54 L6,56 L-3,55 L-2,50 L-8,22 L-11,26 L-21,47 L-22,51 L-24,51 L-25,54 L-26,51 L-15,28 L-7,12 L-3,4 Z " fill="#3B2A33" transform="translate(604,310)"/>
<path d="M0,0 L8,6 L17,15 L25,22 L29,26 L15,27 L-10,27 L-10,18 L-3,4 L-2,1 Z " fill="#48333D" transform="translate(644,405)"/>
<path d="M0,0 L1,3 L-6,17 L-14,33 L-24,54 L-32,70 L-41,89 L-53,111 L-63,125 L-74,137 L-81,144 L-94,153 L-113,163 L-133,169 L-149,171 L-165,171 L-178,169 L-178,167 L-175,166 L-175,168 L-164,168 L-148,169 L-148,166 L-130,165 L-120,163 L-119,160 L-111,159 L-96,151 L-82,141 L-81,139 L-79,139 L-79,137 L-76,137 L-75,134 L-73,134 L-71,130 L-67,126 L-66,123 L-61,118 L-59,114 L-57,114 L-55,109 L-49,99 L-41,83 L-37,71 L-34,68 L-28,56 L-25,49 L-20,40 L-19,36 L-17,36 L-16,30 L-15,27 L-13,27 L-10,17 L-8,17 L-6,11 Z " fill="#0A0306" transform="translate(624,400)"/>
<path d="M0,0 L2,2 L-3,14 L0,14 L14,6 L21,3 L30,3 L33,4 L34,1 L35,6 L19,15 L8,21 L-7,30 L-13,35 L-16,34 L-5,10 Z " fill="#24161E" transform="translate(577,362)"/>
<path d="M0,0 L1,0 L2,15 L8,41 L12,54 L26,61 L34,63 L32,68 L27,69 L15,60 L11,58 L6,59 L-16,71 L-31,80 L-36,84 L-38,84 L-38,86 L-43,91 L-46,93 L-44,84 L-39,82 L-26,73 L-8,63 L7,55 L6,47 L4,37 L-1,18 L-1,1 Z " fill="#BEAFAB" transform="translate(604,313)"/>
<path d="M0,0 L31,0 L31,2 L47,2 L50,7 L52,13 L50,14 L45,4 L-113,4 L-114,2 L0,2 Z " fill="#7F554E" transform="translate(758,459)"/>
<path d="M0,0 L2,2 L8,19 L17,35 L28,49 L38,59 L49,67 L59,73 L63,74 L63,76 L72,79 L83,83 L80,85 L67,80 L53,73 L42,65 L32,57 L32,55 L29,54 L29,52 L26,51 L13,34 L5,18 L-1,2 Z " fill="#040002" transform="translate(353,481)"/>
<path d="M0,0 L1,3 L-7,19 L-13,32 L-15,32 L-16,37 L-25,52 L-35,62 L-42,67 L-47,70 L-64,75 L-74,75 L-70,73 L-56,70 L-40,62 L-29,53 L-22,42 L-10,18 L-1,1 Z " fill="#B7ADAD" transform="translate(513,491)"/>
<path d="M0,0 L1,0 L2,55 L6,61 L14,77 L24,96 L28,105 L36,121 L39,127 L39,129 L37,129 L29,113 L21,97 L5,66 L0,56 Z " fill="#935B51" transform="translate(697,201)"/>
<path d="M0,0 L77,0 L77,1 L55,3 L50,3 L48,2 L23,2 L-3,4 L-5,5 L-5,2 Z " fill="#B49888" transform="translate(648,401)"/>
<path d="M0,0 L1,3 L-8,22 L-18,41 L-28,62 L-35,76 L-37,77 L-34,68 L-27,54 L-25,47 L-23,46 L-22,42 L-20,42 L-18,36 L-14,26 L-12,26 L-10,18 L-6,11 L-4,5 L-2,5 Z " fill="#10060C" transform="translate(682,283)"/>
<path d="M0,0 L3,1 L7,15 L14,27 L23,37 L37,46 L50,50 L51,52 L42,51 L28,44 L16,34 L10,26 L4,16 L2,5 L0,5 Z " fill="#0E0509" transform="translate(406,459)"/>
<path d="M0,0 L3,1 L1,1 L1,78 L0,78 L-1,70 L-1,6 L-3,7 L-1,1 Z " fill="#382128" transform="translate(696,123)"/>
<path d="M0,0 L2,0 L2,63 L0,63 L-1,47 Z " fill="#271722" transform="translate(598,215)"/>
<path d="M0,0 L31,0 L31,2 L47,2 L50,7 L52,13 L50,14 L45,4 L23,4 L23,3 L0,2 Z " fill="#7F5B55" transform="translate(758,459)"/>
<path d="M0,0 L2,0 L0,6 L-8,21 L-13,33 L-17,40 L-20,47 L-25,57 L-26,53 L-16,32 L-8,16 Z " fill="#16070F" transform="translate(679,157)"/>
<path d="M0,0 L1,0 L2,55 L6,61 L12,74 L11,77 L2,60 L0,56 Z " fill="#624244" transform="translate(697,201)"/>
<path d="M0,0 L2,0 L0,6 L-3,14 L-5,14 L-8,23 L-16,39 L-17,43 L-19,43 L-21,49 L-23,50 L-22,45 L-14,28 L-6,12 Z " fill="#0F040A" transform="translate(637,242)"/>
<path d="M0,0 L6,1 L7,6 L4,5 L4,2 L1,2 L1,77 L0,77 Z " fill="#9B7F7C" transform="translate(697,124)"/>
<path d="M0,0 L2,0 L2,43 L0,43 L-1,1 Z " fill="#291921" transform="translate(598,144)"/>
<path d="M0,0 L4,1 L-7,8 L-15,12 L-22,14 L-31,15 L-40,15 L-44,13 L-42,12 L-29,12 L-16,9 L-2,2 L0,2 Z " fill="#170911" transform="translate(502,498)"/>
<path d="M0,0 L33,0 L34,2 L1,2 L1,16 L0,16 L-1,9 L-1,1 Z " fill="#000000" transform="translate(348,444)"/>
<path d="M0,0 L2,1 L-10,10 L-23,19 L-37,29 L-39,29 L-39,27 L-19,13 Z " fill="#C0ABA4" transform="translate(672,433)"/>
<path d="M0,0 L1,0 L1,16 L-6,30 L-11,40 L-13,40 L-13,36 L-11,36 L-9,28 L-7,21 L-4,21 L-2,15 L-1,14 L-1,3 Z " fill="#1A0C10" transform="translate(696,242)"/>
<path d="M0,0 L4,1 L-10,11 L-12,11 L-12,13 L-17,18 L-20,20 L-18,11 L-13,9 Z " fill="#BAADAB" transform="translate(578,386)"/>
<path d="M0,0 L0,3 L-14,32 L-15,36 L-17,36 L-18,39 L-19,36 L-8,13 L-2,1 Z " fill="#37232E" transform="translate(597,325)"/>
<path d="M0,0 L25,0 L27,4 L26,14 L25,14 L24,2 L1,2 Z " fill="#140007" transform="translate(381,444)"/>
<path d="M0,0 L3,1 L7,15 L14,28 L11,28 L4,16 L2,5 L0,5 Z " fill="#1E1019" transform="translate(406,459)"/>
<path d="M0,0 L3,3 L3,6 L1,6 L1,53 L0,53 Z " fill="#86615E" transform="translate(698,203)"/>
<path d="M0,0 L1,0 L2,15 L4,23 L3,27 L0,22 L-1,18 L-1,1 Z " fill="#C6B9B8" transform="translate(604,313)"/>
<path d="M0,0 L1,3 L-7,19 L-10,24 L-11,20 L-3,4 Z " fill="#B7ADAD" transform="translate(513,491)"/>
<path d="M0,0 L16,0 L19,5 L21,11 L19,12 L14,2 L1,2 Z " fill="#6E4E3E" transform="translate(789,461)"/>
<path d="M0,0 L2,0 L1,4 L-6,20 L-8,23 L-4,24 L-9,25 L-10,21 L-5,11 Z " fill="#1B0C12" transform="translate(627,438)"/>
<path d="M0,0 L3,4 L6,17 L5,23 L3,21 L1,9 Z " fill="#B6A8A8" transform="translate(606,337)"/>
<path d="M0,0 L2,0 L2,18 L1,18 L0,4 L-1,12 L-3,9 L-6,12 L-4,5 Z " fill="#64595A" transform="translate(604,310)"/>
<path d="M0,0 L1,3 L-7,19 L-10,22 L-7,13 Z " fill="#1E0F16" transform="translate(589,296)"/>
<path d="M0,0 L3,1 L1,1 L1,28 L0,28 L-1,18 L-1,6 L-3,7 L-1,1 Z " fill="#372024" transform="translate(696,123)"/>
<path d="M0,0 L2,0 L1,3 L-10,10 L-15,14 L-17,14 L-17,12 Z " fill="#B49F99" transform="translate(650,448)"/>
<path d="M0,0 L2,2 L-3,14 L-4,18 L-6,18 L-7,15 Z " fill="#2D1A25" transform="translate(577,362)"/>
<path d="M0,0 L3,4 L9,17 L8,20 L-1,3 Z " fill="#714D46" transform="translate(700,258)"/>
<path d="M0,0 L2,0 L9,8 L15,13 L12,14 L3,6 L0,2 Z " fill="#150711" transform="translate(419,487)"/>
<path d="M0,0 L2,2 L-7,19 L-8,16 Z " fill="#080205" transform="translate(596,456)"/>
<path d="M0,0 L4,4 L8,14 L6,15 L-1,1 Z " fill="#81564F" transform="translate(709,277)"/>
<path d="M0,0 L1,3 L-2,12 L-4,12 L-6,18 L-8,19 L-7,14 Z " fill="#180711" transform="translate(622,273)"/>
<path d="M0,0 L0,3 L-8,11 L-12,14 L-15,13 L-1,1 Z " fill="#C9C0BE" transform="translate(486,542)"/>
<path d="M0,0 L2,0 L1,4 L-5,17 L-8,15 L-1,3 Z " fill="#190A15" transform="translate(525,468)"/>
<path d="M0,0 L3,1 L3,4 L5,4 L9,13 L9,15 L7,15 L0,1 Z " fill="#A3776D" transform="translate(841,534)"/>
<path d="M0,0 L13,1 L13,2 L-1,4 L-5,5 L-5,2 Z " fill="#B29B8E" transform="translate(648,401)"/>
<path d="M0,0 L3,1 L-4,9 L-6,10 L-4,1 Z " fill="#A89B98" transform="translate(564,396)"/>
<path d="M0,0 L2,0 L0,6 L-6,17 L-7,14 Z " fill="#10050B" transform="translate(650,216)"/>
<path d="M0,0 L3,1 L6,10 L9,17 L7,17 L-1,1 Z " fill="#845550" transform="translate(810,473)"/>
<path d="M0,0 L1,3 L-4,13 L-6,13 L-6,9 L-4,9 L-2,1 Z " fill="#0E0509" transform="translate(689,269)"/>
<path d="M0,0 L2,2 L-4,6 L-10,7 L-12,5 Z " fill="#A29998" transform="translate(470,555)"/>
<path d="M0,0 L2,1 L0,2 Z M-2,2 L0,3 L-6,11 L-9,13 L-9,7 L-6,7 Z " fill="#3E2F32" transform="translate(566,397)"/>
<path d="M0,0 L9,3 L8,5 L0,5 L-2,3 L0,1 Z " fill="#A16F66" transform="translate(918,563)"/>
<path d="M0,0 L1,2 L1,8 L-2,9 L-5,12 L-4,7 L-1,1 Z " fill="#26161D" transform="translate(634,425)"/>
<path d="M0,0 L3,3 L2,7 L0,7 L-2,9 L-2,2 Z " fill="#2A1A20" transform="translate(543,383)"/>
<path d="M0,0 L6,0 L8,4 L7,14 L6,14 L5,1 L0,1 Z " fill="#1B0915" transform="translate(400,444)"/>
<path d="M0,0 L2,2 L-3,12 L-5,11 L-3,4 L-1,4 Z " fill="#150910" transform="translate(612,423)"/>
<path d="M0,0 L2,2 L-4,14 L-6,14 L-4,8 Z " fill="#0F060B" transform="translate(552,371)"/>
<path d="M0,0 L3,4 L4,12 L2,12 L0,7 Z " fill="#C6B9B7" transform="translate(611,357)"/>
<path d="M0,0 L14,1 L12,2 L12,4 L6,3 L0,1 Z " fill="#37272C" transform="translate(434,565)"/>
<path d="M0,0 L4,1 L2,3 L-2,6 L-7,8 L-1,1 Z " fill="#574D4F" transform="translate(512,489)"/>
<path d="M0,0 L2,0 L0,9 L-2,9 L-2,11 L-4,11 L-1,2 Z " fill="#170912" transform="translate(609,298)"/>
<path d="M0,0 L4,4 L6,11 L4,11 L0,3 Z " fill="#875F56" transform="translate(716,291)"/>
<path d="M0,0 L2,1 L5,10 L3,11 L-1,2 Z " fill="#86534C" transform="translate(805,462)"/>
<path d="M0,0 L2,1 L-3,11 L-5,11 L-4,5 L-2,5 L-1,1 Z " fill="#1E1117" transform="translate(578,319)"/>
<path d="M0,0 L2,0 L1,5 L-3,11 L-4,8 Z " fill="#3D2027" transform="translate(639,413)"/>
<path d="M0,0 L2,0 L0,7 L-3,10 L-4,8 Z " fill="#12050D" transform="translate(568,381)"/>
<path d="M0,0 L4,1 L-4,6 L-5,3 Z " fill="#C2B2B2" transform="translate(607,370)"/>
<path d="M0,0 L2,0 L1,5 L-2,10 L-3,6 Z " fill="#C2B7B7" transform="translate(505,505)"/>
<path d="M0,0 L2,3 L-1,10 L-3,6 Z " fill="#A69999" transform="translate(501,513)"/>
<path d="M0,0 L1,4 L-3,11 L-5,9 Z " fill="#1C0E14" transform="translate(556,406)"/>
<path d="M0,0 L2,1 L1,7 L-1,9 L-2,5 Z " fill="#180C15" transform="translate(587,471)"/>
<path d="M0,0 L2,0 L2,3 L4,3 L4,8 L2,7 L2,5 L0,5 Z " fill="#B3A59A" transform="translate(699,126)"/>
<path d="M0,0 L3,1 L1,1 L1,7 L-2,7 L-3,5 Z " fill="#643E3E" transform="translate(696,123)"/>
<path d="M0,0 L6,1 L7,6 L4,5 L4,2 Z " fill="#877974" transform="translate(697,124)"/>
<path d="M0,0 Z " fill="#000000" transform="translate(0,697)"/>
<path d="M0,0 Z " fill="#000000" transform="translate(1279,0)"/>
</svg>
