<?xml version="1.0" encoding="UTF-8"?>
<svg version="1.1" xmlns="http://www.w3.org/2000/svg" width="676" height="369">
<path d="M0,0 L3,0 L7,8 L20,30 L20,36 L13,52 L5,68 L-3,84 L-7,94 L-11,102 L-22,125 L-39,161 L-47,177 L-50,184 L-59,203 L-63,201 L-70,194 L-70,192 L-74,190 L-78,185 L-85,179 L-92,171 L-101,162 L-108,154 L-122,140 L-122,138 L-126,136 L-126,132 L-77,132 L-72,137 L-66,142 L-63,133 L-55,116 L-49,103 L-41,86 L-34,71 L-23,48 L-16,32 L-12,24 L-1,1 Z " fill="#D2A8A5" transform="translate(342,111)"/>
<path d="M0,0 L76,0 L77,1 L77,38 L73,48 L67,60 L60,75 L49,98 L42,114 L38,122 L32,134 L30,135 L29,133 L29,37 L30,35 L0,35 L-1,31 L-1,1 Z " fill="#D2A8A5" transform="translate(256,75)"/>
<path d="M0,0 L5,4 L14,18 L21,30 L19,36 L14,47 L7,62 L1,75 L-6,90 L-14,107 L-20,119 L-23,126 L-28,137 L-28,170 L-32,170 L-43,159 L-50,151 L-64,137 L-63,131 L-59,123 L-52,108 L-44,91 L-37,76 L-26,53 L-20,40 L-10,19 L-6,10 Z " fill="#D1A5A3" transform="translate(367,154)"/>
<path d="M0,0 L2,0 L3,92 L8,82 L9,85 L3,97 L1,98 L0,96 Z " fill="#DCBFC1" transform="translate(285,112)"/>
<path d="M0,0 L1,3 L-10,26 L-13,31 L-16,38 L-19,44 L-20,41 L-16,33 L-15,27 L-11,23 L-11,15 L-8,12 L-6,10 L-3,6 Z " fill="#E4D0CF" transform="translate(308,257)"/>
<path d="M0,0 L2,4 L1,6 L-1,6 L2,10 L2,13 L4,13 L7,19 L6,21 L-4,11 L-3,5 Z " fill="#E3CFCF" transform="translate(307,280)"/>
<path d="M0,0 L1,2 L1,7 L-2,14 L-6,15 L-8,21 L-11,25 L-10,20 L-5,11 L-1,1 Z " fill="#E7D4D3" transform="translate(364,159)"/>
<path d="M0,0 L2,0 L9,8 L14,10 L16,6 L16,14 L12,14 L1,3 Z " fill="#F8EDEE" transform="translate(323,310)"/>
<path d="M0,0 L1,3 L-4,12 L-7,19 L-10,25 L-11,22 L-7,14 L-6,8 L-2,4 Z " fill="#F1E0E1" transform="translate(299,276)"/>
<path d="M0,0 L1,4 L-3,11 L-4,19 L-7,19 L-7,21 L-9,21 L-7,15 L-3,6 Z " fill="#EBD9D9" transform="translate(350,188)"/>
<path d="M0,0 L5,4 L10,12 L9,14 L8,11 L5,13 L2,12 L3,5 L-1,3 Z " fill="#E5D0CF" transform="translate(367,154)"/>
<path d="M0,0 L1,3 L-5,15 L-8,22 L-9,19 L-8,18 L-7,10 L-4,11 L-1,2 Z " fill="#EFDFDD" transform="translate(352,258)"/>
<path d="M0,0 L1,4 L0,5 L-1,13 L-4,14 L-7,20 L-8,17 Z " fill="#EEDFDD" transform="translate(301,197)"/>
<path d="M0,0 L1,4 L-5,15 L-6,12 L-5,5 Z " fill="#E4D1D0" transform="translate(381,196)"/>
<path d="M0,0 L1,4 L-2,9 L-3,14 L-5,14 L-5,17 L-7,17 L-8,19 L-7,15 L-3,5 Z " fill="#F0E2E2" transform="translate(313,172)"/>
<path d="M0,0 L1,2 L-6,17 L-8,15 L-7,11 L-3,6 Z " fill="#EBD7D6" transform="translate(316,240)"/>
<path d="M0,0 L1,3 L-5,15 L-7,16 L-8,14 L-8,8 L-6,11 Z " fill="#F7EEEC" transform="translate(293,194)"/>
<path d="M0,0 L3,3 L4,7 L1,13 L0,13 Z " fill="#E2D0CF" transform="translate(384,179)"/>
<path d="M0,0 L2,1 L-1,11 L-4,15 L-2,1 Z " fill="#DEC6C4" transform="translate(287,297)"/>
<path d="M0,0 L1,2 L-3,11 L-4,11 L-4,3 Z " fill="#E4D2D0" transform="translate(342,280)"/>
<path d="M0,0 L1,0 L2,6 L-3,11 L-5,13 L-4,8 Z " fill="#E7D5D4" transform="translate(284,234)"/>
<path d="M0,0 L3,0 L1,7 L-2,10 L-2,3 Z " fill="#E1CBCC" transform="translate(297,182)"/>
<path d="M0,0 L1,3 L-5,15 L-6,13 L-2,2 Z " fill="#EFE0DF" transform="translate(359,149)"/>
<path d="M0,0 L3,1 L1,8 L-2,8 L-1,2 Z " fill="#DFC9C9" transform="translate(371,213)"/>
<path d="M0,0 L2,4 L2,7 L-2,8 L-2,11 L-4,11 L-1,2 Z " fill="#E7D4D3" transform="translate(325,146)"/>
<path d="M0,0 L1,0 L1,6 L-2,8 L-4,13 L-5,10 Z " fill="#ECDFDC" transform="translate(328,235)"/>
<path d="M0,0 L1,3 L0,9 L-4,11 L-1,2 Z " fill="#E4CECC" transform="translate(340,209)"/>
<path d="M0,0 L1,3 L-1,7 L-5,9 L-4,5 L-2,5 Z " fill="#D1B5B4" transform="translate(356,179)"/>
<path d="M0,0 L1,3 L0,8 L-4,11 L-3,6 Z " fill="#ECDFDD" transform="translate(320,157)"/>
<path d="M0,0 L4,4 L0,4 L-2,7 L-3,5 L-2,1 Z " fill="#CBB0AF" transform="translate(367,156)"/>
<path d="M0,0 L1,0 L1,8 L-1,9 L-4,4 L-1,4 Z " fill="#DFD1D3" transform="translate(338,316)"/>
<path d="M0,0 L2,4 L1,6 L-2,6 L-3,8 L-2,3 Z " fill="#E7D4D4" transform="translate(307,280)"/>
</svg>
